<svg xmlns="http://www.w3.org/2000/svg" xmlns:xlink="http://www.w3.org/1999/xlink" id="Layer_1" width="16" height="16" x="0" y="0" enable-background="new 0 0 16 16" version="1.1" viewBox="0 0 16 16" xml:space="preserve"><polygon fill="#FFF" points="7.5 15.134 1.5 13.23 1.5 2.682 7.5 .634" enable-background="new" opacity=".75"/><path fill="#FFF" d="M12.881,1.305L8.344,0.634v14.5l4.584-0.596L12.881,1.305z M10.344,13.787l-1,0.115V8.5h1V13.787z M12.344,6.947l-1.021-0.075c-0.151,0.222-0.429,0.377-0.72,0.377 c-0.342,0-0.438-0.203-0.574-0.492L9.344,6.688V5.85l0.747,0.075c0.151-0.222,0.292-0.377,0.583-0.377 c0.342,0,0.644,0.203,0.779,0.492l0.891,0.069V6.947z M12.344,4.281l-3-0.26V3.184l3,0.26V4.281z" enable-background="new" opacity=".5"/></svg>